<?xml version="1.0" encoding="us-ascii" standalone="no"?><svg xmlns="http://www.w3.org/2000/svg" xmlns:xlink="http://www.w3.org/1999/xlink" contentStyleType="text/css" height="141px" preserveAspectRatio="none" style="width:872px;height:141px;background:#FFFFFF;" version="1.1" viewBox="0 0 872 141" width="872px" zoomAndPan="magnify"><defs/><g><rect fill="#F1F1F1" height="20.2969" rx="5" ry="5" style="stroke:#F1F1F1;stroke-width:1.5;" width="197" x="10" y="54.3516"/><text fill="#000000" font-family="sans-serif" font-size="14" font-weight="bold" lengthAdjust="spacing" textLength="165" x="15" y="69.3467">ddsfmu_mapping.xml</text><text fill="#000000" font-family="sans-serif" font-size="14" lengthAdjust="spacing" textLength="12" x="190" y="69.3467">&#160;&#160;&#160;</text><line style="stroke:#000000;stroke-width:1.0;" x1="185" x2="185" y1="54.3516" y2="74.6484"/><rect fill="none" height="20.2969" rx="5" ry="5" style="stroke:#000000;stroke-width:1.5;" width="197" x="10" y="54.3516"/><rect fill="#F1F1F1" height="20.2969" rx="5" ry="5" style="stroke:#F1F1F1;stroke-width:1.5;" width="115" x="244" y="54.3516"/><text fill="#000000" font-family="sans-serif" font-size="14" font-weight="bold" lengthAdjust="spacing" textLength="83" x="249" y="69.3467">&lt;ddsfmu&gt;</text><text fill="#000000" font-family="sans-serif" font-size="14" lengthAdjust="spacing" textLength="12" x="342" y="69.3467">&#160;&#160;&#160;</text><line style="stroke:#000000;stroke-width:1.0;" x1="337" x2="337" y1="54.3516" y2="74.6484"/><rect fill="none" height="20.2969" rx="5" ry="5" style="stroke:#000000;stroke-width:1.5;" width="115" x="244" y="54.3516"/><rect fill="#F1F1F1" height="40.5938" rx="5" ry="5" style="stroke:#F1F1F1;stroke-width:1.5;" width="163" x="396" y="44"/><text fill="#000000" font-family="sans-serif" font-size="14" font-weight="bold" lengthAdjust="spacing" textLength="119" x="401" y="58.9951">&lt;fmu_in&gt; [0..*]</text><text fill="#000000" font-family="sans-serif" font-size="14" lengthAdjust="spacing" textLength="12" x="542" y="58.9951">&#160;&#160;&#160;</text><line style="stroke:#000000;stroke-width:1.0;" x1="537" x2="537" y1="44" y2="64.2969"/><line style="stroke:#000000;stroke-width:1.0;" x1="396" x2="559" y1="64.2969" y2="64.2969"/><text fill="#000000" font-family="sans-serif" font-size="14" font-weight="bold" lengthAdjust="spacing" textLength="131" x="401" y="79.292">&lt;fmu_out&gt; [0..*]</text><text fill="#000000" font-family="sans-serif" font-size="14" lengthAdjust="spacing" textLength="12" x="542" y="79.292">&#160;&#160;&#160;</text><line style="stroke:#000000;stroke-width:1.0;" x1="537" x2="537" y1="64.2969" y2="84.5938"/><rect fill="none" height="40.5938" rx="5" ry="5" style="stroke:#000000;stroke-width:1.5;" width="163" x="396" y="44"/><rect fill="#F1F1F1" height="40.5938" rx="5" ry="5" style="stroke:#F1F1F1;stroke-width:1.5;" width="224" x="616" y="10"/><text fill="#000000" font-family="sans-serif" font-size="14" font-weight="bold" lengthAdjust="spacing" textLength="39" x="621" y="24.9951">topic</text><text fill="#000000" font-family="sans-serif" font-size="14" lengthAdjust="spacing" textLength="165" x="670" y="24.9951">DDS topic name (string)</text><line style="stroke:#000000;stroke-width:1.0;" x1="665" x2="665" y1="10" y2="30.2969"/><line style="stroke:#000000;stroke-width:1.0;" x1="616" x2="840" y1="30.2969" y2="30.2969"/><text fill="#000000" font-family="sans-serif" font-size="14" font-weight="bold" lengthAdjust="spacing" textLength="35" x="621" y="45.292">type</text><text fill="#000000" font-family="sans-serif" font-size="14" lengthAdjust="spacing" textLength="161" x="670" y="45.292">DDS type name (string)</text><line style="stroke:#000000;stroke-width:1.0;" x1="665" x2="665" y1="30.2969" y2="50.5938"/><rect fill="none" height="40.5938" rx="5" ry="5" style="stroke:#000000;stroke-width:1.5;" width="224" x="616" y="10"/><rect fill="#F1F1F1" height="60.8906" rx="5" ry="5" style="stroke:#F1F1F1;stroke-width:1.5;" width="264" x="596" y="69"/><text fill="#000000" font-family="sans-serif" font-size="14" font-weight="bold" lengthAdjust="spacing" textLength="39" x="601" y="83.9951">topic</text><text fill="#000000" font-family="sans-serif" font-size="14" lengthAdjust="spacing" textLength="165" x="683" y="83.9951">DDS topic name (string)</text><line style="stroke:#000000;stroke-width:1.0;" x1="678" x2="678" y1="69" y2="89.2969"/><line style="stroke:#000000;stroke-width:1.0;" x1="596" x2="860" y1="89.2969" y2="89.2969"/><text fill="#000000" font-family="sans-serif" font-size="14" font-weight="bold" lengthAdjust="spacing" textLength="35" x="601" y="104.292">type</text><text fill="#000000" font-family="sans-serif" font-size="14" lengthAdjust="spacing" textLength="161" x="683" y="104.292">DDS type name (string)</text><line style="stroke:#000000;stroke-width:1.0;" x1="678" x2="678" y1="89.2969" y2="109.5938"/><line style="stroke:#000000;stroke-width:1.0;" x1="596" x2="860" y1="109.5938" y2="109.5938"/><text fill="#000000" font-family="sans-serif" font-size="14" font-weight="bold" lengthAdjust="spacing" textLength="72" x="601" y="124.5889">key_filter</text><text fill="#000000" font-family="sans-serif" font-size="14" lengthAdjust="spacing" textLength="172" x="683" y="124.5889">Do key filtering (boolean)</text><line style="stroke:#000000;stroke-width:1.0;" x1="678" x2="678" y1="109.5938" y2="129.8906"/><rect fill="none" height="60.8906" rx="5" ry="5" style="stroke:#000000;stroke-width:1.5;" width="264" x="596" y="69"/><path d="M547,54.5 L560,54.5 C575.7946,54.5 592.3431,53.4414 608.6322,51.7688 " fill="none" style="stroke:#000000;stroke-width:1.0;stroke-dasharray:3.0,3.0;"/><path d="M608.9562,54.7537 L610.8708,51.5258 L608.3081,48.7839 L616.0944,50.9587 L608.9562,54.7537 " fill="#000000" style="stroke:#000000;stroke-width:1.0;"/><ellipse cx="547" cy="54.5" fill="#000000" rx="3" ry="3" style="stroke:#000000;stroke-width:1.0;"/><path d="M547,74.5 L560,74.5 C569.28,74.5 578.8178,74.88 588.4089,75.5463 " fill="none" style="stroke:#000000;stroke-width:1.0;stroke-dasharray:3.0,3.0;"/><path d="M588.1713,78.6261 L590.7186,75.7245 L588.6464,72.4666 L596.1082,76.1403 L588.1713,78.6261 " fill="#000000" style="stroke:#000000;stroke-width:1.0;"/><ellipse cx="547" cy="74.5" fill="#000000" rx="3" ry="3" style="stroke:#000000;stroke-width:1.0;"/><path d="M347,64.5 L360,64.5 C369.2961,64.5 379.0078,64.5 388.6892,64.5 " fill="none" style="stroke:#000000;stroke-width:1.0;stroke-dasharray:3.0,3.0;"/><path d="M388.6892,67.5997 L391.014,64.5 L388.6892,61.4003 L396.4385,64.5 L388.6892,67.5997 " fill="#000000" style="stroke:#000000;stroke-width:1.0;"/><ellipse cx="347" cy="64.5" fill="#000000" rx="3" ry="3" style="stroke:#000000;stroke-width:1.0;"/><path d="M195,64.5 L208,64.5 C217.3003,64.5 227.1237,64.5 236.7639,64.5 " fill="none" style="stroke:#000000;stroke-width:1.0;stroke-dasharray:3.0,3.0;"/><path d="M236.7639,67.5714 L239.0675,64.5 L236.7639,61.4286 L244.4425,64.5 L236.7639,67.5714 " fill="#000000" style="stroke:#000000;stroke-width:1.0;"/><ellipse cx="195" cy="64.5" fill="#000000" rx="3" ry="3" style="stroke:#000000;stroke-width:1.0;"/><!--SRC=[lP1DJy9048Rl-oicd8e9JOiefZ64ID6aGYGMy60CMUX0Dkv7izqbzjyxfQ9UlBgdcNUUUMTcnvNZrjLSIGPG5DLU-OtYPIdq8VnGCY6LtcrR6Nsb93ISq2DuZSBmukrR1t2c5Bi4EccQjp5ehX22obdox7P-aNM9Pv32FxZJ9EFTFum2UCTwinVIeMreq-JGvWH2i3L68jVKCKPTd3wDBIJNRZMVmH5j9Oo6EEn7_SimZe8NB23p4k8-nCFaQf14GvXCyoKqG9S53uiPLCRR7K8XccMstf53bsNyoE7PQoSKhVrKeixInxC0KtqKrcY5sh5iFVy1hWUzE-4WHqkxm7hEKjnpBnrrx4n15oImMjxtRjYCwuFd1_96pIQ6V6rDjVmJ]--></g></svg>