<?xml version="1.0" encoding="us-ascii" standalone="no"?><svg xmlns="http://www.w3.org/2000/svg" xmlns:xlink="http://www.w3.org/1999/xlink" contentStyleType="text/css" height="485px" preserveAspectRatio="none" style="width:565px;height:485px;background:#FFFFFF;" version="1.1" viewBox="0 0 565 485" width="565px" zoomAndPan="magnify"><defs/><g><rect fill="none" height="345.5938" style="stroke:#000000;stroke-width:1.5;" width="549.5" x="10" y="70.2969"/><rect fill="none" height="104.5313" style="stroke:#000000;stroke-width:1.5;" width="509.5" x="40" y="94.4297"/><rect fill="none" height="195.9297" style="stroke:#000000;stroke-width:1.5;" width="438.5" x="20" y="212.9609"/><rect fill="none" height="164.7969" style="stroke:#000000;stroke-width:1.5;" width="418.5" x="30" y="237.0938"/><rect fill="none" height="75.3984" style="stroke:#000000;stroke-width:1.5;" width="297.5" x="40" y="319.4922"/><line style="stroke:#181818;stroke-width:0.5;stroke-dasharray:5.0,5.0;" x1="85" x2="85" y1="53.2969" y2="432.8906"/><line style="stroke:#181818;stroke-width:0.5;stroke-dasharray:5.0,5.0;" x1="290.5" x2="290.5" y1="53.2969" y2="432.8906"/><line style="stroke:#181818;stroke-width:0.5;stroke-dasharray:5.0,5.0;" x1="387.5" x2="387.5" y1="53.2969" y2="432.8906"/><line style="stroke:#181818;stroke-width:0.5;stroke-dasharray:5.0,5.0;" x1="493.5" x2="493.5" y1="53.2969" y2="432.8906"/><rect fill="#E2E2F0" height="30.2969" rx="2.5" ry="2.5" style="stroke:#181818;stroke-width:0.5;" width="71" x="50" y="22"/><text fill="#000000" font-family="sans-serif" font-size="14" lengthAdjust="spacing" textLength="57" x="57" y="41.9951">dds-fmu</text><rect fill="#E2E2F0" height="30.2969" rx="2.5" ry="2.5" style="stroke:#181818;stroke-width:0.5;" width="71" x="50" y="431.8906"/><text fill="#000000" font-family="sans-serif" font-size="14" lengthAdjust="spacing" textLength="57" x="57" y="451.8857">dds-fmu</text><text fill="#000000" font-family="sans-serif" font-size="14" lengthAdjust="spacing" textLength="68" x="253.5" y="49.9951">Converter</text><ellipse cx="290.5" cy="21" fill="#E2E2F0" rx="12" ry="12" style="stroke:#181818;stroke-width:0.5;"/><line style="stroke:#181818;stroke-width:0.5;" x1="278.5" x2="302.5" y1="35" y2="35"/><text fill="#000000" font-family="sans-serif" font-size="14" lengthAdjust="spacing" textLength="68" x="253.5" y="444.8857">Converter</text><ellipse cx="290.5" cy="464.1875" fill="#E2E2F0" rx="12" ry="12" style="stroke:#181818;stroke-width:0.5;"/><line style="stroke:#181818;stroke-width:0.5;" x1="278.5" x2="302.5" y1="478.1875" y2="478.1875"/><text fill="#000000" font-family="sans-serif" font-size="14" lengthAdjust="spacing" textLength="95" x="337.5" y="49.9951">DataReader[i]</text><ellipse cx="388" cy="21" fill="#E2E2F0" rx="12" ry="12" style="stroke:#181818;stroke-width:0.5;"/><line style="stroke:#181818;stroke-width:0.5;" x1="376" x2="400" y1="35" y2="35"/><text fill="#000000" font-family="sans-serif" font-size="14" lengthAdjust="spacing" textLength="95" x="337.5" y="444.8857">DataReader[i]</text><ellipse cx="388" cy="464.1875" fill="#E2E2F0" rx="12" ry="12" style="stroke:#181818;stroke-width:0.5;"/><line style="stroke:#181818;stroke-width:0.5;" x1="376" x2="400" y1="478.1875" y2="478.1875"/><text fill="#000000" font-family="sans-serif" font-size="14" lengthAdjust="spacing" textLength="85" x="448.5" y="49.9951">DataWriter[j]</text><ellipse cx="494" cy="21" fill="#E2E2F0" rx="12" ry="12" style="stroke:#181818;stroke-width:0.5;"/><line style="stroke:#181818;stroke-width:0.5;" x1="482" x2="506" y1="35" y2="35"/><text fill="#000000" font-family="sans-serif" font-size="14" lengthAdjust="spacing" textLength="85" x="448.5" y="444.8857">DataWriter[j]</text><ellipse cx="494" cy="464.1875" fill="#E2E2F0" rx="12" ry="12" style="stroke:#181818;stroke-width:0.5;"/><line style="stroke:#181818;stroke-width:0.5;" x1="482" x2="506" y1="478.1875" y2="478.1875"/><path d="M10,70.2969 L121,70.2969 L121,77.4297 L111,87.4297 L10,87.4297 L10,70.2969 " fill="#EEEEEE" style="stroke:#000000;stroke-width:1.5;"/><rect fill="none" height="345.5938" style="stroke:#000000;stroke-width:1.5;" width="549.5" x="10" y="70.2969"/><text fill="#000000" font-family="sans-serif" font-size="13" font-weight="bold" lengthAdjust="spacing" textLength="66" x="25" y="83.3638">DoStep()</text><path d="M40,94.4297 L117,94.4297 L117,101.5625 L107,111.5625 L40,111.5625 L40,94.4297 " fill="#EEEEEE" style="stroke:#000000;stroke-width:1.5;"/><rect fill="none" height="104.5313" style="stroke:#000000;stroke-width:1.5;" width="509.5" x="40" y="94.4297"/><text fill="#000000" font-family="sans-serif" font-size="13" font-weight="bold" lengthAdjust="spacing" textLength="32" x="55" y="107.4966">loop</text><text fill="#000000" font-family="sans-serif" font-size="11" font-weight="bold" lengthAdjust="spacing" textLength="147" x="132" y="106.6401">[j=range(DataWriters)]</text><polygon fill="#181818" points="278.5,128.6953,288.5,132.6953,278.5,136.6953,282.5,132.6953" style="stroke:#181818;stroke-width:1.0;"/><line style="stroke:#181818;stroke-width:1.0;" x1="85.5" x2="284.5" y1="132.6953" y2="132.6953"/><text fill="#000000" font-family="sans-serif" font-size="13" lengthAdjust="spacing" textLength="181" x="92.5" y="127.6294">Convert XTypes to Fast-DDS</text><polygon fill="#181818" points="96.5,157.8281,86.5,161.8281,96.5,165.8281,92.5,161.8281" style="stroke:#181818;stroke-width:1.0;"/><line style="stroke:#181818;stroke-width:1.0;stroke-dasharray:2.0,2.0;" x1="90.5" x2="289.5" y1="161.8281" y2="161.8281"/><text fill="#000000" font-family="sans-serif" font-size="13" lengthAdjust="spacing" textLength="157" x="102.5" y="156.7622">Conversion done: data[j]</text><polygon fill="#181818" points="482,186.9609,492,190.9609,482,194.9609,486,190.9609" style="stroke:#181818;stroke-width:1.0;"/><line style="stroke:#181818;stroke-width:1.0;" x1="85.5" x2="488" y1="190.9609" y2="190.9609"/><text fill="#000000" font-family="sans-serif" font-size="13" lengthAdjust="spacing" textLength="128" x="92.5" y="185.895">Write data[j] to DDS</text><path d="M20,212.9609 L97,212.9609 L97,220.0938 L87,230.0938 L20,230.0938 L20,212.9609 " fill="#EEEEEE" style="stroke:#000000;stroke-width:1.5;"/><rect fill="none" height="195.9297" style="stroke:#000000;stroke-width:1.5;" width="438.5" x="20" y="212.9609"/><text fill="#000000" font-family="sans-serif" font-size="13" font-weight="bold" lengthAdjust="spacing" textLength="32" x="35" y="226.0278">loop</text><text fill="#000000" font-family="sans-serif" font-size="11" font-weight="bold" lengthAdjust="spacing" textLength="152" x="112" y="225.1714">[i=range(DataReaders)]</text><path d="M30,237.0938 L107,237.0938 L107,244.2266 L97,254.2266 L30,254.2266 L30,237.0938 " fill="#EEEEEE" style="stroke:#000000;stroke-width:1.5;"/><rect fill="none" height="164.7969" style="stroke:#000000;stroke-width:1.5;" width="418.5" x="30" y="237.0938"/><text fill="#000000" font-family="sans-serif" font-size="13" font-weight="bold" lengthAdjust="spacing" textLength="32" x="45" y="250.1606">loop</text><text fill="#000000" font-family="sans-serif" font-size="11" font-weight="bold" lengthAdjust="spacing" textLength="120" x="122" y="249.3042">[have_data==true]</text><polygon fill="#181818" points="376,271.3594,386,275.3594,376,279.3594,380,275.3594" style="stroke:#181818;stroke-width:1.0;"/><line style="stroke:#181818;stroke-width:1.0;" x1="85.5" x2="382" y1="275.3594" y2="275.3594"/><text fill="#000000" font-family="sans-serif" font-size="13" lengthAdjust="spacing" textLength="180" x="92.5" y="270.2935">Take next sample from DDS</text><polygon fill="#181818" points="96.5,300.4922,86.5,304.4922,96.5,308.4922,92.5,304.4922" style="stroke:#181818;stroke-width:1.0;"/><line style="stroke:#181818;stroke-width:1.0;stroke-dasharray:2.0,2.0;" x1="90.5" x2="387" y1="304.4922" y2="304.4922"/><text fill="#000000" font-family="sans-serif" font-size="13" lengthAdjust="spacing" textLength="67" x="102.5" y="299.4263">have_data</text><path d="M40,319.4922 L104,319.4922 L104,326.625 L94,336.625 L40,336.625 L40,319.4922 " fill="#EEEEEE" style="stroke:#000000;stroke-width:1.5;"/><rect fill="none" height="75.3984" style="stroke:#000000;stroke-width:1.5;" width="297.5" x="40" y="319.4922"/><text fill="#000000" font-family="sans-serif" font-size="13" font-weight="bold" lengthAdjust="spacing" textLength="19" x="55" y="332.5591">alt</text><text fill="#000000" font-family="sans-serif" font-size="11" font-weight="bold" lengthAdjust="spacing" textLength="76" x="119" y="331.7026">[have_data]</text><polygon fill="#181818" points="278.5,353.7578,288.5,357.7578,278.5,361.7578,282.5,357.7578" style="stroke:#181818;stroke-width:1.0;"/><line style="stroke:#181818;stroke-width:1.0;" x1="85.5" x2="284.5" y1="357.7578" y2="357.7578"/><text fill="#000000" font-family="sans-serif" font-size="13" lengthAdjust="spacing" textLength="181" x="92.5" y="352.6919">Convert Fast-DDS to XTypes</text><polygon fill="#181818" points="96.5,382.8906,86.5,386.8906,96.5,390.8906,92.5,386.8906" style="stroke:#181818;stroke-width:1.0;"/><line style="stroke:#181818;stroke-width:1.0;stroke-dasharray:2.0,2.0;" x1="90.5" x2="289.5" y1="386.8906" y2="386.8906"/><text fill="#000000" font-family="sans-serif" font-size="13" lengthAdjust="spacing" textLength="157" x="102.5" y="381.8247">Conversion done: data[i]</text><!--SRC=[bL5BJiCm4Dtd5AEisaKkK2biY3W0hGHIXQeHdXQNnBRiIJ-tnv-OK08HH8eoZkVD-un1o_9L6bGCfH2ksdTz2UZ0rpjV5wHOyXNkjJgHPRBvHzaWuoEX8BkLBn5Yu-ccuSbAZzaUKyCvdeg3rRs1Hg-Pp69P5AtM1ewrHNMWnOXoomA-FOCegEv6GR3ADJnlheOSi8O7T5mrpNeoOOHLVaYUbqSugHK8hMW5mklmkkSa93iU7FLcHA0FpAH4SYQ_E4k19MVnyWrFj0l8kcRRqnnTYjVJRV2TGD65mM5dMeAzrHtyv7Q0t5hzf9oqOyipjtzSGeu-v90Mykka_or3JfSHCXu-m_i1]--></g></svg>