<?xml version="1.0" encoding="us-ascii" standalone="no"?><svg xmlns="http://www.w3.org/2000/svg" xmlns:xlink="http://www.w3.org/1999/xlink" contentStyleType="text/css" height="232px" preserveAspectRatio="none" style="width:899px;height:232px;background:#FFFFFF;" version="1.1" viewBox="0 0 899 232" width="899px" zoomAndPan="magnify"><defs/><g><rect fill="#F1F1F1" height="20.2969" rx="5" ry="5" style="stroke:#F1F1F1;stroke-width:1.5;" width="151" x="10" y="105"/><text fill="#000000" font-family="sans-serif" font-size="14" font-weight="bold" lengthAdjust="spacing" textLength="119" x="15" y="119.9951">dds_profile.xml</text><text fill="#000000" font-family="sans-serif" font-size="14" lengthAdjust="spacing" textLength="12" x="144" y="119.9951">&#160;&#160;&#160;</text><line style="stroke:#000000;stroke-width:1.0;" x1="139" x2="139" y1="105" y2="125.2969"/><rect fill="none" height="20.2969" rx="5" ry="5" style="stroke:#000000;stroke-width:1.5;" width="151" x="10" y="105"/><rect fill="#F1F1F1" height="20.2969" rx="5" ry="5" style="stroke:#F1F1F1;stroke-width:1.5;" width="169" x="198" y="105"/><text fill="#000000" font-family="sans-serif" font-size="14" font-weight="bold" lengthAdjust="spacing" textLength="137" x="203" y="119.9951">&lt;dds&gt;&lt;profiles&gt;</text><text fill="#000000" font-family="sans-serif" font-size="14" lengthAdjust="spacing" textLength="12" x="350" y="119.9951">&#160;&#160;&#160;</text><line style="stroke:#000000;stroke-width:1.0;" x1="345" x2="345" y1="105" y2="125.2969"/><rect fill="none" height="20.2969" rx="5" ry="5" style="stroke:#000000;stroke-width:1.5;" width="169" x="198" y="105"/><rect fill="#F1F1F1" height="121.7813" rx="5" ry="5" style="stroke:#F1F1F1;stroke-width:1.5;" width="213" x="404" y="54.1484"/><text fill="#000000" font-family="sans-serif" font-size="14" font-weight="bold" lengthAdjust="spacing" textLength="155" x="409" y="69.1436">&lt;participant&gt; [0..1]</text><text fill="#000000" font-family="sans-serif" font-size="14" lengthAdjust="spacing" textLength="12" x="600" y="69.1436">&#160;&#160;&#160;</text><line style="stroke:#000000;stroke-width:1.0;" x1="595" x2="595" y1="54.1484" y2="74.4453"/><line style="stroke:#000000;stroke-width:1.0;" x1="404" x2="617" y1="74.4453" y2="74.4453"/><text fill="#000000" font-family="sans-serif" font-size="14" font-weight="bold" lengthAdjust="spacing" textLength="145" x="409" y="89.4404">&lt;publisher&gt; [0..1]</text><text fill="#000000" font-family="sans-serif" font-size="14" lengthAdjust="spacing" textLength="12" x="600" y="89.4404">&#160;&#160;&#160;</text><line style="stroke:#000000;stroke-width:1.0;" x1="595" x2="595" y1="74.4453" y2="94.7422"/><line style="stroke:#000000;stroke-width:1.0;" x1="404" x2="617" y1="94.7422" y2="94.7422"/><text fill="#000000" font-family="sans-serif" font-size="14" font-weight="bold" lengthAdjust="spacing" textLength="156" x="409" y="109.7373">&lt;subscriber&gt; [0..1]</text><text fill="#000000" font-family="sans-serif" font-size="14" lengthAdjust="spacing" textLength="12" x="600" y="109.7373">&#160;&#160;&#160;</text><line style="stroke:#000000;stroke-width:1.0;" x1="595" x2="595" y1="94.7422" y2="115.0391"/><line style="stroke:#000000;stroke-width:1.0;" x1="404" x2="617" y1="115.0391" y2="115.0391"/><text fill="#000000" font-family="sans-serif" font-size="14" font-weight="bold" lengthAdjust="spacing" textLength="167" x="409" y="130.0342">&lt;topic&gt; [0..n_w+n_r]</text><text fill="#000000" font-family="sans-serif" font-size="14" lengthAdjust="spacing" textLength="12" x="600" y="130.0342">&#160;&#160;&#160;</text><line style="stroke:#000000;stroke-width:1.0;" x1="595" x2="595" y1="115.0391" y2="135.3359"/><line style="stroke:#000000;stroke-width:1.0;" x1="404" x2="617" y1="135.3359" y2="135.3359"/><text fill="#000000" font-family="sans-serif" font-size="14" font-weight="bold" lengthAdjust="spacing" textLength="181" x="409" y="150.3311">&lt;data_writer&gt; [0..n_w]</text><text fill="#000000" font-family="sans-serif" font-size="14" lengthAdjust="spacing" textLength="12" x="600" y="150.3311">&#160;&#160;&#160;</text><line style="stroke:#000000;stroke-width:1.0;" x1="595" x2="595" y1="135.3359" y2="155.6328"/><line style="stroke:#000000;stroke-width:1.0;" x1="404" x2="617" y1="155.6328" y2="155.6328"/><text fill="#000000" font-family="sans-serif" font-size="14" font-weight="bold" lengthAdjust="spacing" textLength="179" x="409" y="170.6279">&lt;data_reader&gt; [0..n_r]</text><text fill="#000000" font-family="sans-serif" font-size="14" lengthAdjust="spacing" textLength="12" x="600" y="170.6279">&#160;&#160;&#160;</text><line style="stroke:#000000;stroke-width:1.0;" x1="595" x2="595" y1="155.6328" y2="175.9297"/><rect fill="none" height="121.7813" rx="5" ry="5" style="stroke:#000000;stroke-width:1.5;" width="213" x="404" y="54.1484"/><rect fill="#F1F1F1" height="20.2969" rx="5" ry="5" style="stroke:#F1F1F1;stroke-width:1.5;" width="230" x="655.5" y="10"/><text fill="#000000" font-family="sans-serif" font-size="14" font-weight="bold" lengthAdjust="spacing" textLength="101" x="660.5" y="24.9951">profile_name</text><text fill="#000000" font-family="sans-serif" font-size="14" lengthAdjust="spacing" textLength="109" x="771.5" y="24.9951">dds-fmu-default</text><line style="stroke:#000000;stroke-width:1.0;" x1="766.5" x2="766.5" y1="10" y2="30.2969"/><rect fill="none" height="20.2969" rx="5" ry="5" style="stroke:#000000;stroke-width:1.5;" width="230" x="655.5" y="10"/><rect fill="#F1F1F1" height="20.2969" rx="5" ry="5" style="stroke:#F1F1F1;stroke-width:1.5;" width="230" x="655.5" y="48"/><text fill="#000000" font-family="sans-serif" font-size="14" font-weight="bold" lengthAdjust="spacing" textLength="101" x="660.5" y="62.9951">profile_name</text><text fill="#000000" font-family="sans-serif" font-size="14" lengthAdjust="spacing" textLength="109" x="771.5" y="62.9951">dds-fmu-default</text><line style="stroke:#000000;stroke-width:1.0;" x1="766.5" x2="766.5" y1="48" y2="68.2969"/><rect fill="none" height="20.2969" rx="5" ry="5" style="stroke:#000000;stroke-width:1.5;" width="230" x="655.5" y="48"/><rect fill="#F1F1F1" height="20.2969" rx="5" ry="5" style="stroke:#F1F1F1;stroke-width:1.5;" width="230" x="655.5" y="86"/><text fill="#000000" font-family="sans-serif" font-size="14" font-weight="bold" lengthAdjust="spacing" textLength="101" x="660.5" y="100.9951">profile_name</text><text fill="#000000" font-family="sans-serif" font-size="14" lengthAdjust="spacing" textLength="109" x="771.5" y="100.9951">dds-fmu-default</text><line style="stroke:#000000;stroke-width:1.0;" x1="766.5" x2="766.5" y1="86" y2="106.2969"/><rect fill="none" height="20.2969" rx="5" ry="5" style="stroke:#000000;stroke-width:1.5;" width="230" x="655.5" y="86"/><rect fill="#F1F1F1" height="20.2969" rx="5" ry="5" style="stroke:#F1F1F1;stroke-width:1.5;" width="233" x="654" y="124"/><text fill="#000000" font-family="sans-serif" font-size="14" font-weight="bold" lengthAdjust="spacing" textLength="101" x="659" y="138.9951">profile_name</text><text fill="#000000" font-family="sans-serif" font-size="14" lengthAdjust="spacing" textLength="112" x="770" y="138.9951">DDS topic name</text><line style="stroke:#000000;stroke-width:1.0;" x1="765" x2="765" y1="124" y2="144.2969"/><rect fill="none" height="20.2969" rx="5" ry="5" style="stroke:#000000;stroke-width:1.5;" width="233" x="654" y="124"/><rect fill="#F1F1F1" height="20.2969" rx="5" ry="5" style="stroke:#F1F1F1;stroke-width:1.5;" width="233" x="654" y="162"/><text fill="#000000" font-family="sans-serif" font-size="14" font-weight="bold" lengthAdjust="spacing" textLength="101" x="659" y="176.9951">profile_name</text><text fill="#000000" font-family="sans-serif" font-size="14" lengthAdjust="spacing" textLength="112" x="770" y="176.9951">DDS topic name</text><line style="stroke:#000000;stroke-width:1.0;" x1="765" x2="765" y1="162" y2="182.2969"/><rect fill="none" height="20.2969" rx="5" ry="5" style="stroke:#000000;stroke-width:1.5;" width="233" x="654" y="162"/><rect fill="#F1F1F1" height="20.2969" rx="5" ry="5" style="stroke:#F1F1F1;stroke-width:1.5;" width="233" x="654" y="200"/><text fill="#000000" font-family="sans-serif" font-size="14" font-weight="bold" lengthAdjust="spacing" textLength="101" x="659" y="214.9951">profile_name</text><text fill="#000000" font-family="sans-serif" font-size="14" lengthAdjust="spacing" textLength="112" x="770" y="214.9951">DDS topic name</text><line style="stroke:#000000;stroke-width:1.0;" x1="765" x2="765" y1="200" y2="220.2969"/><rect fill="none" height="20.2969" rx="5" ry="5" style="stroke:#000000;stroke-width:1.5;" width="233" x="654" y="200"/><path d="M605,64.1484 L618,64.1484 C637.4797,64.1484 635.9439,46.4582 654,39.1484 C660.4595,36.5334 667.2597,34.2779 674.1949,32.3326 " fill="none" style="stroke:#000000;stroke-width:1.0;stroke-dasharray:3.0,3.0;"/><path d="M674.9915,35.3601 L676.4655,31.7352 L673.3983,29.3052 L681.7635,30.3412 L674.9915,35.3601 " fill="#000000" style="stroke:#000000;stroke-width:1.0;"/><ellipse cx="605" cy="64.1484" fill="#000000" rx="3" ry="3" style="stroke:#000000;stroke-width:1.0;"/><path d="M605,84.1484 L618,84.1484 C634.2997,84.1484 637.9556,80.0216 654,77.1484 C668.2834,74.5906 683.5815,71.9878 698.2285,69.5625 " fill="none" style="stroke:#000000;stroke-width:1.0;stroke-dasharray:3.0,3.0;"/><path d="M698.7289,72.599 L700.5059,69.1872 L697.7281,66.5259 L705.8198,68.3115 L698.7289,72.599 " fill="#000000" style="stroke:#000000;stroke-width:1.0;"/><ellipse cx="605" cy="84.1484" fill="#000000" rx="3" ry="3" style="stroke:#000000;stroke-width:1.0;"/><path d="M605,105.1484 L618,105.1484 C627.7954,105.1484 637.9398,104.9599 648.1268,104.6373 " fill="none" style="stroke:#000000;stroke-width:1.0;stroke-dasharray:3.0,3.0;"/><path d="M648.2355,107.7547 L650.4648,104.5558 L648.018,101.52 L655.9201,104.3655 L648.2355,107.7547 " fill="#000000" style="stroke:#000000;stroke-width:1.0;"/><ellipse cx="605" cy="105.1484" fill="#000000" rx="3" ry="3" style="stroke:#000000;stroke-width:1.0;"/><path d="M605,125.1484 L618,125.1484 C627.2822,125.1484 636.8777,125.3178 646.526,125.6099 " fill="none" style="stroke:#000000;stroke-width:1.0;stroke-dasharray:3.0,3.0;"/><path d="M646.4221,128.7076 L648.8492,125.6879 L646.6299,122.5123 L654.27,125.8697 L646.4221,128.7076 " fill="#000000" style="stroke:#000000;stroke-width:1.0;"/><ellipse cx="605" cy="125.1484" fill="#000000" rx="3" ry="3" style="stroke:#000000;stroke-width:1.0;"/><path d="M605,145.1484 L618,145.1484 C634.3903,145.1484 637.9062,150.0448 654,153.1484 C667.6102,155.7732 682.1641,158.3426 696.2028,160.7013 " fill="none" style="stroke:#000000;stroke-width:1.0;stroke-dasharray:3.0,3.0;"/><path d="M695.6877,163.7961 L698.5239,161.0876 L696.7179,157.6065 L703.9398,161.989 L695.6877,163.7961 " fill="#000000" style="stroke:#000000;stroke-width:1.0;"/><ellipse cx="605" cy="145.1484" fill="#000000" rx="3" ry="3" style="stroke:#000000;stroke-width:1.0;"/><path d="M605,166.1484 L618,166.1484 C637.4797,166.1484 635.9439,183.8386 654,191.1484 C660.4595,193.7635 667.2597,196.019 674.1949,197.9642 " fill="none" style="stroke:#000000;stroke-width:1.0;stroke-dasharray:3.0,3.0;"/><path d="M673.3983,200.9917 L676.4655,198.5617 L674.9915,194.9368 L681.7635,199.9557 L673.3983,200.9917 " fill="#000000" style="stroke:#000000;stroke-width:1.0;"/><ellipse cx="605" cy="166.1484" fill="#000000" rx="3" ry="3" style="stroke:#000000;stroke-width:1.0;"/><path d="M355,115.1484 L368,115.1484 C377.24,115.1484 386.8182,115.1484 396.4374,115.1484 " fill="none" style="stroke:#000000;stroke-width:1.0;stroke-dasharray:3.0,3.0;"/><path d="M396.4374,118.2355 L398.7527,115.1484 L396.4374,112.0614 L404.1551,115.1484 L396.4374,118.2355 " fill="#000000" style="stroke:#000000;stroke-width:1.0;"/><ellipse cx="355" cy="115.1484" fill="#000000" rx="3" ry="3" style="stroke:#000000;stroke-width:1.0;"/><path d="M149,115.1484 L162,115.1484 C171.2879,115.1484 180.9802,115.1484 190.6544,115.1484 " fill="none" style="stroke:#000000;stroke-width:1.0;stroke-dasharray:3.0,3.0;"/><path d="M190.6544,118.247 L192.9783,115.1484 L190.6544,112.0498 L198.4009,115.1484 L190.6544,118.247 " fill="#000000" style="stroke:#000000;stroke-width:1.0;"/><ellipse cx="149" cy="115.1484" fill="#000000" rx="3" ry="3" style="stroke:#000000;stroke-width:1.0;"/><!--SRC=[fP5DJy9048Rl-oicd22cJOiefY64ID6aGYGMy61CitGNt6GxRVO3vD-xvVFaGTpZC_C-EvaPQ4ELsT524W36T5QfSYKazxyB6JdaNi_XVk_8TVz87QzSKkIYecZwy17uVlXvBW8S0ndIWaUrsbiLrcDyHQqq5uTTIg6_kBhQeErIvqei_w4mPINoGngpxGrcwdT78uvJs0UW1espX553iwqIvZI8KrshKPooY-OlqmmuilqroLIwkymdOzXmfKM94Fhje7thXq7pdJD8h8Im3M4tkkj4GHU6etG6TKEBD9-dOz2bLJa79hHnoxN66LeaeHiARnQDg3z_hJWcySi9m0WtGfLOS3GaMKmk3VSTxr4OIBboiy1YGkB30LmYBvd0TGJpsPFtGCOKrvQkdPiZ6PREgtQkblu0]--></g></svg>